{"title":"Lewis S09E01 - One for Sorrow pt1 x264 RB58.mp4","uid":12529847,"size":524220012,"categoryP":"video","categoryS":"tv_shows","magnet":"?xt=urn:btih:604d9a977db0a5badad63e6caca5af310831bc5d&amp;dn=Lewis+S09E01+-+One+for+Sorrow+pt1+x264+RB58.mp4&amp;tr=udp%3A%2F%2Ftracker.leechers-paradise.org%3A6969&amp;tr=udp%3A%2F%2Fzer0day.ch%3A1337&amp;tr=udp%3A%2F%2Fopen.demonii.com%3A1337&amp;tr=udp%3A%2F%2Ftracker.coppersurfer.tk%3A6969&amp;tr=udp%3A%2F%2Fexodus.desync.com%3A6969","seeders":0,"leechers":0,"uploader":"RedBaron58","files":1,"time":1444226161,"description":"Lewis S09E01 - One for Sorrow pt1 x264 mp4\r\n \nhttp://www.imdb.com/title/tt0874608/\r\n\r\n\r\nPlease be patient My intial upload speed is limited.\r\nThank you for your kind comments and feedback on my other torrents, your feedback is welcome.\r\n\r\n\r\nAbout the Episode:\r\nThe detective is faced with a difficult case when he investigates the discovery of a body in a well, \r\nand he also has to contend with a new boss, Chief Superintendent Moody, who is dubious as to Lewis' \r\nmotivation for coming out of retirement. \r\nAs investigations into the human remains in the well proceed, an avant-garde artist's body is also \r\ndiscovered and at first glance it looks like a tragic drugs overdose, but Hathaway and Lewis quickly \r\nrecognise the tell tale signs of murder.\r\n\r\n\r\nI hope you enjoy.\r\n\r\n\r\nTechnical:\r\n\r\nGeneral\r\nComplete name                            : H:Lewis S09E01 - One for Sorrow pt1 x264 RB58.mp4\r\nFormat                                   : MPEG-4\r\nFormat profile                           : Base Media\r\nCodec ID                                 : isom\r\nFile size                                : 500 MiB\r\nDuration                                 : 45mn 51s\r\nOverall bit rate                         : 1 524 Kbps\r\nWriting application                      : Lavf54.63.104\r\n\r\nVideo\r\nID                                       : 1\r\nFormat                                   : AVC\r\nFormat/Info                              : Advanced Video Codec\r\nFormat profile                           :   \r\nFormat settings, CABAC                   : Yes\r\nFormat settings, ReFrames                : 4 frames\r\nCodec ID                                 : avc1\r\nCodec ID/Info                            : Advanced Video Coding\r\nDuration                                 : 45mn 51s\r\nBit rate                                 : 1 400 Kbps\r\nWidth                                    : 832 pixels\r\nHeight                                   : 468 pixels\r\nDisplay aspect ratio                     : 16:9\r\nFrame rate mode                          : Constant\r\nFrame rate                               : 25.000 fps\r\nColor space                              : YUV\r\nChroma subsampling                       : 4:2:0\r\nBit depth                                : 8 bits\r\nScan type                                : Progressive\r\nBits/(Pixel*Frame)                       : 0.144\r\nStream size                              : 459 MiB (92%)\r\nWriting library                          : x264 core 123 r2189 35cf912\r\nEncoding settings                        : cabac=1 / ref=3 / deblock=1:0:0\r\n\r\nAudio\r\nID                                       : 2\r\nFormat                                   : AAC\r\nFormat/Info                              : Advanced Audio Codec\r\nFormat profile                           : LC\r\nCodec ID                                 : 40\r\nDuration                                 : 45mn 51s\r\nBit rate mode                            : Constant\r\nBit rate                                 : 116 Kbps\r\nChannel(s)                               : 2 channels\r\nChannel positions                        : Front: L R\r\nSampling rate                            : 48.0 KHz\r\nCompression mode                         : Lossy\r\nStream size                              : 38.1 MiB (8%)\r\nLanguage                                 : English","torrent":{"xt":"urn:btih:604d9a977db0a5badad63e6caca5af310831bc5d","amp;dn":"Lewis+S09E01+-+One+for+Sorrow+pt1+x264+RB58.mp4","amp;tr":["udp%3A%2F%2Ftracker.leechers-paradise.org%3A6969","udp%3A%2F%2Fzer0day.ch%3A1337","udp%3A%2F%2Fopen.demonii.com%3A1337","udp%3A%2F%2Ftracker.coppersurfer.tk%3A6969","udp%3A%2F%2Fexodus.desync.com%3A6969"],"infoHash":"604d9a977db0a5badad63e6caca5af310831bc5d","infoHashBuffer":{"type":"Buffer","data":[96,77,154,151,125,176,165,186,218,214,62,108,172,165,175,49,8,49,188,93]},"announce":[],"urlList":[]}}